<mxfile host="app.diagrams.net" modified="2021-04-15T08:40:07.726Z" agent="5.0 (Windows NT 10.0; Win64; x64) AppleWebKit/537.36 (KHTML, like Gecko) Chrome/90.0.4430.72 Safari/537.36" etag="X_3I2vaCSn2Fx9UWHQr5" version="14.6.0" type="github">
  <diagram id="FfRopQTt97_5PFokcuNt" name="Page-1">
    <mxGraphModel dx="460" dy="752" grid="1" gridSize="10" guides="1" tooltips="1" connect="1" arrows="1" fold="1" page="1" pageScale="1" pageWidth="827" pageHeight="1169" math="0" shadow="0">
      <root>
        <mxCell id="0" />
        <mxCell id="1" parent="0" />
        <mxCell id="HMmW_JA1xbRgwA9L7B1p-30" style="edgeStyle=orthogonalEdgeStyle;rounded=0;orthogonalLoop=1;jettySize=auto;html=1;exitX=0.5;exitY=1;exitDx=0;exitDy=0;entryX=0.5;entryY=0;entryDx=0;entryDy=0;" parent="1" source="HMmW_JA1xbRgwA9L7B1p-1" target="HMmW_JA1xbRgwA9L7B1p-2" edge="1">
          <mxGeometry relative="1" as="geometry" />
        </mxCell>
        <mxCell id="HMmW_JA1xbRgwA9L7B1p-1" value="첫번째 값 저장하기&lt;br&gt;a" style="rounded=0;whiteSpace=wrap;html=1;strokeColor=#000000;" parent="1" vertex="1">
          <mxGeometry x="80" y="120" width="120" height="60" as="geometry" />
        </mxCell>
        <mxCell id="HMmW_JA1xbRgwA9L7B1p-27" style="edgeStyle=orthogonalEdgeStyle;rounded=0;orthogonalLoop=1;jettySize=auto;html=1;exitX=1;exitY=0.5;exitDx=0;exitDy=0;entryX=1;entryY=0.5;entryDx=0;entryDy=0;" parent="1" source="HMmW_JA1xbRgwA9L7B1p-2" target="HMmW_JA1xbRgwA9L7B1p-2" edge="1">
          <mxGeometry relative="1" as="geometry">
            <mxPoint x="370" y="270" as="targetPoint" />
            <Array as="points" />
          </mxGeometry>
        </mxCell>
        <mxCell id="HMmW_JA1xbRgwA9L7B1p-38" style="edgeStyle=orthogonalEdgeStyle;rounded=0;orthogonalLoop=1;jettySize=auto;html=1;exitX=0.5;exitY=1;exitDx=0;exitDy=0;" parent="1" source="HMmW_JA1xbRgwA9L7B1p-2" target="HMmW_JA1xbRgwA9L7B1p-10" edge="1">
          <mxGeometry relative="1" as="geometry" />
        </mxCell>
        <mxCell id="HMmW_JA1xbRgwA9L7B1p-2" value="두번째 값 저장하기&lt;br&gt;b" style="rounded=0;whiteSpace=wrap;html=1;strokeColor=#000000;" parent="1" vertex="1">
          <mxGeometry x="80" y="240" width="120" height="60" as="geometry" />
        </mxCell>
        <mxCell id="HMmW_JA1xbRgwA9L7B1p-12" style="edgeStyle=orthogonalEdgeStyle;rounded=0;orthogonalLoop=1;jettySize=auto;html=1;exitX=0.5;exitY=1;exitDx=0;exitDy=0;entryX=0.5;entryY=0;entryDx=0;entryDy=0;" parent="1" source="HMmW_JA1xbRgwA9L7B1p-8" target="HMmW_JA1xbRgwA9L7B1p-9" edge="1">
          <mxGeometry relative="1" as="geometry" />
        </mxCell>
        <mxCell id="HMmW_JA1xbRgwA9L7B1p-19" style="edgeStyle=orthogonalEdgeStyle;rounded=0;orthogonalLoop=1;jettySize=auto;html=1;exitX=1;exitY=0.5;exitDx=0;exitDy=0;entryX=0;entryY=0.5;entryDx=0;entryDy=0;" parent="1" source="HMmW_JA1xbRgwA9L7B1p-8" target="HMmW_JA1xbRgwA9L7B1p-18" edge="1">
          <mxGeometry relative="1" as="geometry" />
        </mxCell>
        <mxCell id="HMmW_JA1xbRgwA9L7B1p-29" style="edgeStyle=orthogonalEdgeStyle;rounded=0;orthogonalLoop=1;jettySize=auto;html=1;exitX=0;exitY=0.5;exitDx=0;exitDy=0;entryX=1;entryY=0.5;entryDx=0;entryDy=0;" parent="1" source="HMmW_JA1xbRgwA9L7B1p-8" target="HMmW_JA1xbRgwA9L7B1p-1" edge="1">
          <mxGeometry relative="1" as="geometry" />
        </mxCell>
        <mxCell id="HMmW_JA1xbRgwA9L7B1p-8" value="첫번째 값 있는가?" style="rhombus;whiteSpace=wrap;html=1;strokeColor=#000000;" parent="1" vertex="1">
          <mxGeometry x="280" y="50" width="190" height="80" as="geometry" />
        </mxCell>
        <mxCell id="HMmW_JA1xbRgwA9L7B1p-13" style="edgeStyle=orthogonalEdgeStyle;rounded=0;orthogonalLoop=1;jettySize=auto;html=1;exitX=0.5;exitY=1;exitDx=0;exitDy=0;entryX=0.5;entryY=0;entryDx=0;entryDy=0;" parent="1" source="HMmW_JA1xbRgwA9L7B1p-9" target="HMmW_JA1xbRgwA9L7B1p-10" edge="1">
          <mxGeometry relative="1" as="geometry">
            <Array as="points">
              <mxPoint x="375" y="270" />
              <mxPoint x="375" y="270" />
            </Array>
          </mxGeometry>
        </mxCell>
        <mxCell id="HMmW_JA1xbRgwA9L7B1p-21" style="edgeStyle=orthogonalEdgeStyle;rounded=0;orthogonalLoop=1;jettySize=auto;html=1;exitX=1;exitY=0.5;exitDx=0;exitDy=0;entryX=0;entryY=0.5;entryDx=0;entryDy=0;" parent="1" source="HMmW_JA1xbRgwA9L7B1p-9" target="HMmW_JA1xbRgwA9L7B1p-20" edge="1">
          <mxGeometry relative="1" as="geometry" />
        </mxCell>
        <mxCell id="HMmW_JA1xbRgwA9L7B1p-28" style="edgeStyle=orthogonalEdgeStyle;rounded=0;orthogonalLoop=1;jettySize=auto;html=1;exitX=0;exitY=0.5;exitDx=0;exitDy=0;" parent="1" source="HMmW_JA1xbRgwA9L7B1p-9" target="HMmW_JA1xbRgwA9L7B1p-2" edge="1">
          <mxGeometry relative="1" as="geometry" />
        </mxCell>
        <mxCell id="HMmW_JA1xbRgwA9L7B1p-9" value="두번째 값 있는가?" style="rhombus;whiteSpace=wrap;html=1;strokeColor=#000000;" parent="1" vertex="1">
          <mxGeometry x="280" y="170" width="190" height="80" as="geometry" />
        </mxCell>
        <mxCell id="HMmW_JA1xbRgwA9L7B1p-35" style="edgeStyle=orthogonalEdgeStyle;rounded=0;orthogonalLoop=1;jettySize=auto;html=1;exitX=0.5;exitY=1;exitDx=0;exitDy=0;entryX=0.5;entryY=0;entryDx=0;entryDy=0;" parent="1" source="HMmW_JA1xbRgwA9L7B1p-10" target="HMmW_JA1xbRgwA9L7B1p-32" edge="1">
          <mxGeometry relative="1" as="geometry" />
        </mxCell>
        <mxCell id="HMmW_JA1xbRgwA9L7B1p-10" value="첫번째 값, 두번째 값 곱해라&amp;nbsp;&lt;br&gt;a*b" style="rhombus;whiteSpace=wrap;html=1;strokeColor=#000000;" parent="1" vertex="1">
          <mxGeometry x="280" y="290" width="190" height="80" as="geometry" />
        </mxCell>
        <mxCell id="HMmW_JA1xbRgwA9L7B1p-16" value="예스" style="text;html=1;align=center;verticalAlign=middle;resizable=0;points=[];autosize=1;strokeColor=none;" parent="1" vertex="1">
          <mxGeometry x="400" y="140" width="40" height="20" as="geometry" />
        </mxCell>
        <mxCell id="HMmW_JA1xbRgwA9L7B1p-17" value="예스" style="text;html=1;align=center;verticalAlign=middle;resizable=0;points=[];autosize=1;strokeColor=none;" parent="1" vertex="1">
          <mxGeometry x="400" y="260" width="40" height="20" as="geometry" />
        </mxCell>
        <mxCell id="HMmW_JA1xbRgwA9L7B1p-18" value="첫번째 값 입력해라" style="whiteSpace=wrap;html=1;aspect=fixed;strokeColor=#000000;" parent="1" vertex="1">
          <mxGeometry x="540" y="60" width="60" height="60" as="geometry" />
        </mxCell>
        <mxCell id="HMmW_JA1xbRgwA9L7B1p-20" value="두번째 값 입력해라" style="whiteSpace=wrap;html=1;aspect=fixed;strokeColor=#000000;" parent="1" vertex="1">
          <mxGeometry x="540" y="180" width="60" height="60" as="geometry" />
        </mxCell>
        <mxCell id="HMmW_JA1xbRgwA9L7B1p-32" value="결과 표시하기" style="rounded=0;whiteSpace=wrap;html=1;strokeColor=#000000;" parent="1" vertex="1">
          <mxGeometry x="315" y="420" width="120" height="60" as="geometry" />
        </mxCell>
        <mxCell id="HMmW_JA1xbRgwA9L7B1p-39" value="예스" style="text;html=1;align=center;verticalAlign=middle;resizable=0;points=[];autosize=1;strokeColor=none;" parent="1" vertex="1">
          <mxGeometry x="400" y="140" width="40" height="20" as="geometry" />
        </mxCell>
        <mxCell id="HMmW_JA1xbRgwA9L7B1p-40" value="노" style="text;html=1;align=center;verticalAlign=middle;resizable=0;points=[];autosize=1;strokeColor=none;" parent="1" vertex="1">
          <mxGeometry x="485" y="100" width="30" height="20" as="geometry" />
        </mxCell>
        <mxCell id="HMmW_JA1xbRgwA9L7B1p-41" value="노" style="text;html=1;align=center;verticalAlign=middle;resizable=0;points=[];autosize=1;strokeColor=none;" parent="1" vertex="1">
          <mxGeometry x="485" y="230" width="30" height="20" as="geometry" />
        </mxCell>
      </root>
    </mxGraphModel>
  </diagram>
</mxfile>
